<svg width="21" height="15" viewBox="0 0 21 15" fill="none" xmlns="http://www.w3.org/2000/svg">
<path d="M20.3141 10.9935H19.9695V8.37432C19.9695 8.00672 19.8431 7.69656 19.5904 7.44384C19.3376 7.19111 19.0275 7.06475 18.6599 7.06475V1.61969C18.6599 1.25209 18.5335 0.941925 18.2808 0.6892C18.0281 0.436476 17.7179 0.310114 17.3503 0.310114H3.84103C3.47343 0.310114 3.16327 0.436476 2.91055 0.6892C2.65782 0.941925 2.53146 1.25209 2.53146 1.61969V7.06475C2.16386 7.06475 1.8537 7.19111 1.60097 7.44384C1.34825 7.69656 1.22189 8.00672 1.22189 8.37432V10.9935H0.877262C0.785362 10.9935 0.716437 11.0164 0.670487 11.0624C0.624537 11.1083 0.601562 11.1773 0.601562 11.2692V12.5787C0.601562 12.6706 0.624537 12.7511 0.670487 12.82C0.716437 12.8889 0.785362 12.9234 0.877262 12.9234H1.22189V14.164C1.22189 14.2559 1.25635 14.3363 1.32527 14.4052C1.3942 14.4742 1.47461 14.5086 1.56651 14.5086H2.53146C2.71526 14.5086 2.80716 14.4167 2.80716 14.2329L3.08286 12.9234H18.1085L18.3842 14.2329C18.3842 14.4167 18.4761 14.5086 18.6599 14.5086H19.6248C19.7167 14.5086 19.7971 14.4742 19.8661 14.4052C19.935 14.3363 19.9695 14.2559 19.9695 14.164V12.9234H20.3141C20.406 12.9234 20.4749 12.8889 20.5209 12.82C20.5668 12.7511 20.5898 12.6706 20.5898 12.5787V11.2692C20.5898 11.1773 20.5668 11.1083 20.5209 11.0624C20.4749 11.0164 20.406 10.9935 20.3141 10.9935ZM3.15178 1.61969C3.15178 1.43589 3.22071 1.27506 3.35856 1.13721C3.49641 0.999363 3.65723 0.930438 3.84103 0.930438H17.3503C17.5341 0.930438 17.6949 0.999363 17.8328 1.13721C17.9706 1.27506 18.0396 1.43589 18.0396 1.61969V7.06475H17.3503V5.8241C17.3503 5.4565 17.2239 5.14634 16.9712 4.89362C16.7185 4.64089 16.4313 4.51453 16.1097 4.51453H12.1809C11.8593 4.51453 11.5721 4.64089 11.3194 4.89362C11.0667 5.14634 10.9403 5.4565 10.9403 5.8241V7.06475H10.251V5.8241C10.251 5.4565 10.1247 5.14634 9.87196 4.89362C9.61923 4.64089 9.33205 4.51453 9.0104 4.51453H5.08168C4.76003 4.51453 4.47284 4.64089 4.22012 4.89362C3.96739 5.14634 3.84103 5.4565 3.84103 5.8241V7.06475H3.15178V1.61969ZM16.73 5.8241V7.06475H11.5606V5.8241C11.5606 5.6403 11.6295 5.47948 11.7674 5.34163C11.9052 5.20378 12.0431 5.13485 12.1809 5.13485H16.1097C16.2935 5.13485 16.4428 5.20378 16.5577 5.34163C16.6725 5.47948 16.73 5.6403 16.73 5.8241ZM9.63072 5.8241V7.06475H4.46136V5.8241C4.46136 5.6403 4.51879 5.47948 4.63367 5.34163C4.74854 5.20378 4.89788 5.13485 5.08168 5.13485H9.0104C9.14825 5.13485 9.2861 5.20378 9.42395 5.34163C9.5618 5.47948 9.63072 5.6403 9.63072 5.8241ZM1.84221 8.37432C1.84221 8.19052 1.91114 8.04119 2.04898 7.92631C2.18683 7.81144 2.34766 7.754 2.53146 7.754H18.6599C18.8437 7.754 19.0045 7.81144 19.1424 7.92631C19.2802 8.04119 19.3491 8.19052 19.3491 8.37432V10.9935H1.84221V8.37432ZM2.25576 13.8883H1.84221V12.9234H2.46253L2.25576 13.8883ZM19.3491 13.8883H18.9356L18.7288 12.9234H19.3491V13.8883ZM19.9695 12.2341H1.22189V11.6138H19.9695V12.2341Z" fill="#696969"/>
</svg>
