<svg width="16" height="16" viewBox="0 0 16 16" fill="none" xmlns="http://www.w3.org/2000/svg">
<path d="M14.0343 11.8119C14.0343 11.5555 13.9445 11.3376 13.765 11.1581L11.765 9.15801C11.5855 8.97852 11.3675 8.88877 11.1111 8.88877C10.8419 8.88877 10.6111 8.99134 10.4188 9.19647C10.438 9.21571 10.4989 9.275 10.6015 9.37436C10.704 9.47372 10.773 9.54264 10.8082 9.5811C10.8435 9.61956 10.8915 9.68046 10.9524 9.7638C11.0133 9.84713 11.055 9.92886 11.0775 10.009C11.0999 10.0891 11.1111 10.1773 11.1111 10.2734C11.1111 10.5298 11.0214 10.7478 10.8419 10.9273C10.6624 11.1068 10.4444 11.1965 10.188 11.1965C10.0918 11.1965 10.0037 11.1853 9.92358 11.1629C9.84344 11.1404 9.76171 11.0988 9.67838 11.0379C9.59504 10.977 9.53414 10.9289 9.49568 10.8936C9.45722 10.8584 9.3883 10.7895 9.28894 10.6869C9.18958 10.5843 9.13029 10.5234 9.11105 10.5042C8.89951 10.7029 8.79374 10.9369 8.79374 11.2061C8.79374 11.4626 8.88348 11.6805 9.06298 11.86L11.0438 13.8504C11.2169 14.0235 11.4348 14.1101 11.6977 14.1101C11.9541 14.1101 12.172 14.0267 12.3515 13.8601L13.765 12.4562C13.9445 12.2767 14.0343 12.0619 14.0343 11.8119ZM7.27447 5.0329C7.27447 4.77649 7.18472 4.55853 7.00523 4.37904L5.02441 2.3886C4.84492 2.20911 4.62696 2.11937 4.37055 2.11937C4.12054 2.11937 3.90258 2.20591 3.71668 2.37899L2.30318 3.78287C2.12369 3.96236 2.03395 4.17711 2.03395 4.42712C2.03395 4.68354 2.12369 4.90149 2.30318 5.08098L4.30324 7.08103C4.47632 7.25412 4.69427 7.34066 4.9571 7.34066C5.22634 7.34066 5.45711 7.24129 5.64943 7.04257C5.63019 7.02334 5.56929 6.96404 5.46673 6.86468C5.36416 6.76532 5.29525 6.69641 5.25999 6.65795C5.22473 6.61948 5.17666 6.55858 5.11576 6.47525C5.05486 6.39191 5.01319 6.31018 4.99075 6.23005C4.96832 6.14992 4.9571 6.06178 4.9571 5.96562C4.9571 5.7092 5.04685 5.49125 5.22634 5.31176C5.40583 5.13227 5.62378 5.04252 5.8802 5.04252C5.97636 5.04252 6.0645 5.05374 6.14463 5.07617C6.22476 5.09861 6.30649 5.14028 6.38983 5.20118C6.47316 5.26208 6.53406 5.31015 6.57253 5.34541C6.61099 5.38067 6.6799 5.44958 6.77926 5.55215C6.87862 5.65471 6.93792 5.71561 6.95715 5.73485C7.1687 5.53612 7.27447 5.30214 7.27447 5.0329ZM15.0727 9.85034C15.6112 10.3888 15.8805 11.0427 15.8805 11.8119C15.8805 12.5812 15.608 13.2318 15.0631 13.7639L13.6496 15.1678C13.1176 15.6998 12.4669 15.9659 11.6977 15.9659C10.922 15.9659 10.2681 15.6934 9.73607 15.1486L7.75525 13.1581C7.22318 12.6261 6.95715 11.9754 6.95715 11.2061C6.95715 10.4177 7.23921 9.74777 7.80333 9.19647L6.95715 8.3503C6.40586 8.91442 5.73917 9.19647 4.9571 9.19647C4.18785 9.19647 3.53399 8.92724 2.99551 8.38876L0.995458 6.38871C0.456982 5.85023 0.187744 5.19637 0.187744 4.42712C0.187744 3.65787 0.460187 3.00721 1.00507 2.47514L2.41857 1.07126C2.95064 0.539197 3.60129 0.273164 4.37055 0.273164C5.14621 0.273164 5.80007 0.545608 6.33214 1.09049L8.31296 3.08093C8.84502 3.613 9.11105 4.26365 9.11105 5.0329C9.11105 5.82139 8.829 6.49127 8.26488 7.04257L9.11105 7.88875C9.66235 7.32463 10.329 7.04257 11.1111 7.04257C11.8804 7.04257 12.5342 7.31181 13.0727 7.85028L15.0727 9.85034Z" fill="white"/>
</svg>
