<svg width="28" height="16" viewBox="0 0 28 16" fill="none" xmlns="http://www.w3.org/2000/svg">
<path d="M9.25628 7.5588C10.1344 7.74594 10.8398 8.18502 11.3725 8.87603C11.9051 9.55264 12.1715 10.33 12.1715 11.2082C12.1715 12.475 11.7252 13.4828 10.8326 14.2313C9.95448 14.9655 8.72362 15.3326 7.14006 15.3326H0.0788192V0.173643H6.90253C8.4429 0.173643 9.64497 0.526345 10.5087 1.23175C11.3869 1.93715 11.826 2.89449 11.826 4.10375C11.826 4.99631 11.5884 5.7377 11.1134 6.32794C10.6527 6.91817 10.0337 7.32846 9.25628 7.5588ZM3.7714 6.30634H6.18993C6.79456 6.30634 7.25523 6.17678 7.57194 5.91765C7.90305 5.64413 8.06861 5.24824 8.06861 4.72998C8.06861 4.21172 7.90305 3.81583 7.57194 3.54231C7.25523 3.26879 6.79456 3.13202 6.18993 3.13202H3.7714V6.30634ZM6.49224 12.3527C7.11127 12.3527 7.58634 12.2159 7.91745 11.9424C8.26295 11.6545 8.4357 11.2442 8.4357 10.7115C8.4357 10.1789 8.25575 9.76139 7.89585 9.45907C7.55035 9.15675 7.06808 9.00559 6.44905 9.00559H3.7714V12.3527H6.49224ZM27.9822 0.173643V15.3326H24.2896V9.09197H18.5456V15.3326H14.853V0.173643H18.5456V6.112H24.2896V0.173643H27.9822Z" fill="#FEFEFF"/>
</svg>
