<svg width="20" height="18" viewBox="0 0 20 18" fill="none" xmlns="http://www.w3.org/2000/svg">
<path d="M14.0154 0.811127C13.1577 0.851971 12.3714 1.05619 11.6566 1.42379C10.9419 1.79139 10.3394 2.32237 9.84928 3.01672C9.35915 2.32237 8.7567 1.79139 8.04192 1.42379C7.32714 1.05619 6.54089 0.862183 5.68316 0.841761C4.82543 0.821339 4.00854 1.0664 3.2325 1.57696C2.45645 2.08751 1.83358 2.75124 1.36387 3.56812C0.894157 4.38501 0.659302 5.26316 0.659302 6.20258C0.659302 7.59129 1.04732 8.99021 1.82337 10.3993C2.59941 11.8085 3.72263 13.1665 5.19303 14.4736C6.58173 15.6989 8.09298 16.7609 9.72675 17.6594C9.80844 17.7003 9.89013 17.7003 9.97182 17.6594C11.6056 16.7609 13.1168 15.6989 14.5055 14.4736C15.9759 13.1665 17.0992 11.8085 17.8752 10.3993C18.6512 8.99021 19.0393 7.59129 19.0393 6.20258C19.0393 5.26316 18.8044 4.38501 18.3347 3.56812C17.865 2.75124 17.2421 2.08751 16.4661 1.57696C15.69 1.0664 14.8731 0.811127 14.0154 0.811127ZM9.84928 17.0468C8.95071 16.5566 8.05213 15.9644 7.15356 15.27C5.51978 14.0447 4.21276 12.7785 3.2325 11.4715C1.92548 9.7152 1.27197 7.95889 1.27197 6.20258C1.27197 5.3857 1.47619 4.60965 1.88463 3.87446C2.29308 3.13926 2.84448 2.54701 3.53883 2.09772C4.23318 1.64844 4.96838 1.434 5.74443 1.45443C6.52047 1.47485 7.25567 1.67907 7.95002 2.06709C8.64438 2.45511 9.19577 2.9963 9.60422 3.69066C9.64506 3.81319 9.72675 3.87446 9.84928 3.87446C9.97182 3.87446 10.0535 3.81319 10.0943 3.69066C10.5028 2.9963 11.0542 2.45511 11.7485 2.06709C12.4429 1.67907 13.1781 1.47485 13.9541 1.45443C14.7302 1.434 15.4654 1.64844 16.1597 2.09772C16.8541 2.54701 17.4055 3.13926 17.8139 3.87446C18.2224 4.60965 18.4266 5.3857 18.4266 6.20258C18.4266 7.95889 17.7731 9.7152 16.4661 11.4715C15.4858 12.7785 14.1788 14.0447 12.545 15.27C11.6464 15.9644 10.7479 16.5566 9.84928 17.0468Z" fill="#484848"/>
</svg>
