<svg width="20" height="16" viewBox="0 0 20 16" fill="none" xmlns="http://www.w3.org/2000/svg">
<path d="M6.40533 3.35009C6.40533 3.35009 6.49507 3.43984 6.67456 3.61933C6.85405 3.79882 6.9438 4.14498 6.9438 4.65782C6.9438 5.17065 6.76431 5.60656 6.40533 5.96554C6.04634 6.32453 5.61043 6.50402 5.0976 6.50402C4.58477 6.50402 4.14886 6.32453 3.78987 5.96554C3.43089 5.60656 3.2514 5.17065 3.2514 4.65782C3.2514 4.14498 3.43089 3.70908 3.78987 3.35009C4.14886 2.99111 4.58477 2.81162 5.0976 2.81162C5.61043 2.81162 6.04634 2.99111 6.40533 3.35009ZM16.7902 8.35022V12.658H3.2514V10.8118L6.3284 7.73482L7.8669 9.27332L12.7901 4.35012L16.7902 8.35022ZM17.7133 1.58082H2.3283C2.24496 1.58082 2.17284 1.61127 2.11194 1.67216C2.05105 1.73306 2.0206 1.80518 2.0206 1.88852V13.5811C2.0206 13.6645 2.05105 13.7366 2.11194 13.7975C2.17284 13.8584 2.24496 13.8888 2.3283 13.8888H17.7133C17.7966 13.8888 17.8688 13.8584 17.9297 13.7975C17.9906 13.7366 18.021 13.6645 18.021 13.5811V1.88852C18.021 1.80518 17.9906 1.73306 17.9297 1.67216C17.8688 1.61127 17.7966 1.58082 17.7133 1.58082ZM19.2518 1.88852V13.5811C19.2518 14.0042 19.1012 14.3664 18.7999 14.6677C18.4986 14.969 18.1364 15.1196 17.7133 15.1196H2.3283C1.90521 15.1196 1.54302 14.969 1.24173 14.6677C0.94044 14.3664 0.789795 14.0042 0.789795 13.5811V1.88852C0.789795 1.46543 0.94044 1.10324 1.24173 0.80195C1.54302 0.500659 1.90521 0.350014 2.3283 0.350014H17.7133C18.1364 0.350014 18.4986 0.500659 18.7999 0.80195C19.1012 1.10324 19.2518 1.46543 19.2518 1.88852Z" fill="white"/>
</svg>
