<svg width="11" height="16" viewBox="0 0 11 16" fill="none" xmlns="http://www.w3.org/2000/svg">
<path d="M7.26862 7.58479C7.26862 7.58479 7.38881 7.46459 7.6292 7.2242C7.86959 6.98381 7.98979 6.52386 7.98979 5.84436C7.98979 5.16485 7.7494 4.58471 7.26862 4.10393C6.78783 3.62314 6.20769 3.38275 5.52819 3.38275C4.84868 3.38275 4.26854 3.62314 3.78776 4.10393C3.30697 4.58471 3.06658 5.16485 3.06658 5.84436C3.06658 6.52386 3.30697 7.104 3.78776 7.58479C4.26854 8.06557 4.84868 8.30596 5.52819 8.30596C6.20769 8.30596 6.78783 8.06557 7.26862 7.58479ZM10.4514 5.84436C10.4514 6.54309 10.3456 7.11682 10.1341 7.56555L6.63398 15.0081C6.53142 15.2196 6.37917 15.3863 6.17724 15.5081C5.97531 15.6299 5.75896 15.6908 5.52819 15.6908C5.29741 15.6908 5.08106 15.6299 4.87913 15.5081C4.6772 15.3863 4.52816 15.2196 4.432 15.0081L0.922296 7.56555C0.710752 7.11682 0.60498 6.54309 0.60498 5.84436C0.60498 4.48535 1.08576 3.32506 2.04733 2.3635C3.00889 1.40193 4.16918 0.92115 5.52819 0.92115C6.8872 0.92115 8.04748 1.40193 9.00904 2.3635C9.97061 3.32506 10.4514 4.48535 10.4514 5.84436Z" fill="#666666"/>
</svg>
