<svg width="15" height="12" viewBox="0 0 15 12" fill="none" xmlns="http://www.w3.org/2000/svg">
<path d="M15.0093 3.94077V10.587C15.0093 10.9553 14.8781 11.2706 14.6159 11.5329C14.3536 11.7951 14.0383 11.9263 13.67 11.9263H1.34856C0.980259 11.9263 0.664969 11.7951 0.402692 11.5329C0.140416 11.2706 0.00927734 10.9553 0.00927734 10.587V3.94077C0.254813 4.21421 0.536621 4.45695 0.854701 4.66901C2.87479 6.04178 4.26151 7.00439 5.01486 7.55685C5.33294 7.79122 5.59103 7.97398 5.78913 8.10512C5.98723 8.23626 6.25091 8.37018 6.58015 8.5069C6.90939 8.64362 7.21631 8.71198 7.50091 8.71198H7.50928H7.51765C7.80225 8.71198 8.10917 8.64362 8.43841 8.5069C8.76765 8.37018 9.03132 8.23626 9.22942 8.10512C9.42752 7.97398 9.68562 7.79122 10.0037 7.55685C10.9524 6.87046 12.3419 5.90785 14.1722 4.66901C14.4903 4.45137 14.7693 4.20863 15.0093 3.94077ZM15.0093 1.47983C15.0093 1.92068 14.8726 2.342 14.5991 2.74378C14.3257 3.14557 13.9853 3.48876 13.5779 3.77336C11.4797 5.22984 10.1739 6.13664 9.6605 6.49379C9.6047 6.53285 9.48612 6.61795 9.30476 6.74909C9.12339 6.88023 8.97273 6.98625 8.85275 7.06717C8.73277 7.14808 8.58768 7.23877 8.41748 7.33921C8.24728 7.43966 8.08684 7.51499 7.93617 7.56522C7.7855 7.61544 7.646 7.64055 7.51765 7.64055H7.50928H7.50091C7.37256 7.64055 7.23305 7.61544 7.08238 7.56522C6.93171 7.51499 6.77128 7.43966 6.60107 7.33921C6.43087 7.23877 6.28578 7.14808 6.16581 7.06717C6.04583 6.98625 5.89516 6.88023 5.7138 6.74909C5.53244 6.61795 5.41385 6.53285 5.35805 6.49379C4.85024 6.13664 4.11921 5.62744 3.16497 4.96616C2.21073 4.30489 1.63874 3.90729 1.44901 3.77336C1.10303 3.53899 0.776576 3.21672 0.469657 2.80656C0.162737 2.39641 0.00927734 2.01555 0.00927734 1.66398C0.00927734 1.22872 0.12507 0.865993 0.356655 0.575813C0.588239 0.285635 0.918876 0.140545 1.34856 0.140545H13.67C14.0327 0.140545 14.3466 0.271684 14.6117 0.53396C14.8767 0.796238 15.0093 1.11153 15.0093 1.47983Z" fill="white" fill-opacity="0.85"/>
</svg>
