<svg width="19" height="19" viewBox="0 0 19 19" fill="none" xmlns="http://www.w3.org/2000/svg">
<path d="M14.8355 12.0232C14.3045 12.0232 13.8144 12.1355 13.3651 12.3602C12.9158 12.5848 12.5278 12.9014 12.201 13.3098L7.17714 10.7366C7.25883 10.4099 7.29967 10.1035 7.29967 9.81762C7.29967 9.36834 7.21799 8.95989 7.05461 8.59229L12.3848 5.40643C12.6707 5.77403 13.0281 6.04973 13.457 6.23353C13.8858 6.41733 14.3453 6.50923 14.8355 6.50923C15.734 6.50923 16.4999 6.2029 17.133 5.59023C17.766 4.97757 18.0826 4.22195 18.0826 3.32337C18.0826 2.42479 17.766 1.65896 17.133 1.02587C16.4999 0.392786 15.734 0.0762424 14.8355 0.0762424C13.9369 0.0762424 13.1711 0.392786 12.538 1.02587C11.9049 1.65896 11.5883 2.42479 11.5883 3.32337C11.5883 3.73181 11.67 4.11983 11.8334 4.48743L6.50321 7.6733C6.17645 7.34654 5.80885 7.08105 5.40041 6.87683C4.99197 6.67261 4.54268 6.5705 4.05255 6.5705C3.15397 6.5705 2.38814 6.88704 1.75505 7.52013C1.12196 8.15322 0.80542 8.91905 0.80542 9.81762C0.80542 10.7162 1.12196 11.482 1.75505 12.1151C2.38814 12.7482 3.15397 13.0648 4.05255 13.0648C4.58352 13.0648 5.08387 12.9422 5.55358 12.6972C6.02329 12.4521 6.4011 12.1049 6.68701 11.6556L11.7721 14.2901C11.6496 14.576 11.5883 14.8823 11.5883 15.2091C11.5883 16.1077 11.9049 16.8735 12.538 17.5066C13.1711 18.1397 13.9369 18.4562 14.8355 18.4562C15.734 18.4562 16.4999 18.1397 17.133 17.5066C17.766 16.8735 18.0826 16.1077 18.0826 15.2091C18.0826 14.3105 17.766 13.5549 17.133 12.9422C16.4999 12.3296 15.734 12.0232 14.8355 12.0232ZM14.8355 1.17904C15.4073 1.17904 15.9076 1.38326 16.3365 1.79171C16.7654 2.20015 16.9798 2.70049 16.9798 3.29274C16.9798 3.88498 16.7654 4.39553 16.3365 4.8244C15.9076 5.25327 15.3971 5.4677 14.8048 5.4677C14.2126 5.4677 13.7122 5.25327 13.3038 4.8244C12.8954 4.39553 12.6911 3.88498 12.6911 3.29274C12.6911 2.70049 12.8954 2.20015 13.3038 1.79171C13.7122 1.38326 14.2228 1.17904 14.8355 1.17904ZM4.05255 11.962C3.48073 11.962 2.98038 11.7475 2.55152 11.3187C2.12265 10.8898 1.90822 10.3792 1.90822 9.78699C1.90822 9.19475 2.12265 8.6944 2.55152 8.28596C2.98038 7.87752 3.49094 7.6733 4.08318 7.6733C4.67542 7.6733 5.17577 7.87752 5.58421 8.28596C5.99265 8.6944 6.19688 9.19475 6.19688 9.78699C6.19688 10.3792 5.99265 10.8898 5.58421 11.3187C5.17577 11.7475 4.66521 11.962 4.05255 11.962ZM14.8355 17.3534C14.2228 17.3534 13.7122 17.1492 13.3038 16.7407C12.8954 16.3323 12.6911 15.832 12.6911 15.2397C12.6911 14.6475 12.8954 14.1369 13.3038 13.708C13.7122 13.2792 14.2126 13.0648 14.8048 13.0648C15.3971 13.0648 15.9076 13.2792 16.3365 13.708C16.7654 14.1369 16.9798 14.6475 16.9798 15.2397C16.9798 15.832 16.7654 16.3323 16.3365 16.7407C15.9076 17.1492 15.4073 17.3534 14.8355 17.3534Z" fill="#484848"/>
</svg>
