<svg width="18" height="13" viewBox="0 0 18 13" fill="none" xmlns="http://www.w3.org/2000/svg">
<path d="M17.7221 1.50394V11.9658C17.7221 12.235 17.5971 12.4241 17.347 12.5331C17.2637 12.5651 17.1836 12.5812 17.1067 12.5812C16.9336 12.5812 16.7893 12.5203 16.674 12.3985L12.7989 8.52336V10.1196C12.7989 10.8824 12.528 11.5347 11.9863 12.0763C11.4447 12.618 10.7924 12.8889 10.0296 12.8889H3.26015C2.49731 12.8889 1.84505 12.618 1.30337 12.0763C0.761685 11.5347 0.490845 10.8824 0.490845 10.1196V3.35015C0.490845 2.58731 0.761685 1.93505 1.30337 1.39336C1.84505 0.851685 2.49731 0.580844 3.26015 0.580844H10.0296C10.7924 0.580844 11.4447 0.851685 11.9863 1.39336C12.528 1.93505 12.7989 2.58731 12.7989 3.35015V4.93673L16.674 1.07124C16.7893 0.949443 16.9336 0.888544 17.1067 0.888544C17.1836 0.888544 17.2637 0.904571 17.347 0.936623C17.5971 1.0456 17.7221 1.23471 17.7221 1.50394Z" fill="white"/>
</svg>
